<?xml version="1.0" encoding="UTF-8"?>
<svg id="Layer_2" data-name="Layer 2" xmlns="http://www.w3.org/2000/svg" viewBox="0 0 3638.63 2448.51">
  <defs>
    <style>
      .cls-1 {
        fill: #ffbe1a;
      }

      .cls-2 {
        fill: #c9c9c9;
      }

      .cls-3 {
        fill: #fff;
      }

      .cls-4 {
        fill: none;
      }
    </style>
  </defs>
  <g id="Layer_1-2" data-name="Layer 1">
    <g>
      <g>
        <path class="cls-4" d="M1188.18,603.47c-51.92,52.52-98.75,110.89-149.29,164.73-69.82,74.38-153.03,150.44-218.79,227.17-32.75,38.21-1.94,63.29,20.94,99.47,108.12,171.01,225.38,353.78,339.99,520.01,9.2,13.34,20.99,33.25,32.01,43.99,3.52,3.43,3.3,8.75,11.26,6.75V573.6c-14.58,6.1-25.18,18.8-36.11,29.87Z"/>
        <path class="cls-3" d="M3635.87,1376.02c-32.14-319.67-380.27-334.94-624.48-387.52-65.28-14.06-184.9-31.73-194.65-113.34-21.37-178.96,316.72-209.94,380.31-40.32,9.61,25.65,5.61,56.35,35.02,68.98l361.4.96c30.12-15.73,17.63-47.45,12.09-74.45-108.34-528.47-1184.78-498.69-1192.88,73.7-5.26,371.72,407.29,376.76,668.5,438.68,70.53,16.72,166.64,42.94,150.9,136.68-7.72,45.97-96.1,60.09-134.29,65.71-25.11,3.7-51.75,6.57-79.5,8.79v289.59c16.08-.47,32.14-1.03,48.16-1.71,289-12.28,605-111.87,569.42-465.75Z"/>
        <path class="cls-3" d="M2196.7,1447.19c-2.31-13.61,1.14-29.44-4.37-43.63l.83-595.09c2.72-12.27,10.59-15.79,22.1-17.9,26.07-4.79,97.17,6.27,112.9-7.1,10.44-8.87,35.46-95.15,48.76-119.24,16.51-29.89,94.78-123.13,93.77-148.67-.71-17.9-34.41-21.03-48.26-22.11-49.66-3.86-138.61-2.4-187.78,4.51-50.08,7.04-38.98,57.67-43.49,92.51-28,216.46-323.78,132.26-263.66-47.66,40.24-120.44,142.91-74.89,229.95-94.05,28.16-6.2,33.27-45.13,34.99-69.01,5.96-82.83-4.83-172.63-.06-256.25-.27-11.9-9.93-27.5-22.19-29.81l-276.11-.31c-13.77.75-27.5,17.52-29.56,30.44-6.19,38.84.14,96.4-4.27,139.73-12.86,126.29-58.6,219.94-197.8,230.2-255.74,18.85-534.58-15.21-792.35-.35-36.66,2.11-53.71,2.84-79.99,28.09-83,79.73-179.14,196.54-256.27,285.6-39.94,46.12-100.94,106.4-109.2,168.84-4.36,32.94,4.76,64.69-5.46,98.54-32.38,107.3-179.82,128.38-244.61,38.84-55.19-76.28-8.8-191.77,80.81-214.64,66.94-17.09,134.26,24.69,141.1-74.9l-.3-792.07c-2.56-13.59-10.41-13.23-21.66-14.34-109.6-10.83-236.87,8.71-348.4.05C1.74,20.94,1.45,34.58.11,55.43l.03,1748.3c-1.79,24.08,13.1,33.29,35.1,36.92,69.13,11.41,205.43,1.01,278.89-3.22,35.17-2.03,78.03,13.93,82.36-33.64,10.05-110.49-8.65-235.26.72-347.28,29.57-56.08,85.49-93.83,124.86-143.1,12.04-8.78,24.85-3.27,31.95,8.47,103.09,166.3,200.97,336.54,308.09,499.91,5.29,4.79,12.54,10.54,19.27,12.73,12.63,4.12,49.28,6.44,64.76,7.24,175.1,9.08,380.57,3.38,556-4.33,29.72-1.31,100.27,10.74,111.96-24.04l2.13-997.87c.85-4.11,2.7-10.81,7.16-17.66,30.55-46.86,146.01-43.01,172.03,2.61,8.38,14.68,4.77,30.6,5.06,34.94,15.09,222.96-18.19,466.19,3.87,688.13,30.69,308.78,293.44,313.12,532.95,313.35v-287.36c-66.48-2.85-126.64-20.12-140.59-102.35ZM1224.29,1665.6c-7.96,2.01-7.74-3.32-11.26-6.75-11.02-10.74-22.81-30.66-32.01-43.99-114.6-166.24-231.86-349-339.99-520.01-22.88-36.18-53.69-61.26-20.94-99.47,65.76-76.74,148.97-152.79,218.79-227.17,50.54-53.84,97.37-112.21,149.29-164.73,10.94-11.07,21.53-23.77,36.11-29.87v1092Z"/>
        <path class="cls-1" d="M1281.61,344.21c228.14,171.29,447.28-224.67,183.79-329.72-204.24-81.43-355.09,201.11-183.79,329.72Z"/>
        <path class="cls-2" d="M2442.46,1549.43c-32.87-.93-69.91,1.61-105.16.1v287.36c27.43.03,54.56,0,81,.37,197.61,2.76,400.86,12.05,600,6.21v-289.59c-179.98,14.34-407.32.32-575.84-4.45Z"/>
      </g>
      <g>
        <path class="cls-3" d="M414.39,2377.26c-23.39,0-44.3-5.43-62.73-16.29-18.43-10.86-32.93-26.49-43.49-46.89-10.56-20.4-15.84-44.92-15.84-73.56s5.34-53.36,16.02-73.83c10.68-20.46,25.24-36.12,43.67-46.98,18.43-10.86,39.22-16.29,62.37-16.29,14.68,0,28.43,2.09,41.25,6.26,12.82,4.18,24.25,10.29,34.27,18.34,10.02,8.05,18.22,17.9,24.61,29.53,6.38,11.63,10.59,24.85,12.62,39.64h-48.68c-1.31-8.11-3.85-15.27-7.61-21.48-3.76-6.2-8.41-11.48-13.96-15.84-5.55-4.35-11.84-7.63-18.88-9.84-7.04-2.21-14.62-3.31-22.73-3.31-14.56,0-27.44,3.61-38.66,10.83-11.22,7.22-19.99,17.84-26.31,31.86-6.33,14.02-9.49,31.05-9.49,51.1s3.19,37.38,9.58,51.28c6.38,13.9,15.15,24.4,26.31,31.5,11.15,7.1,23.95,10.65,38.39,10.65,7.99,0,15.45-1.04,22.37-3.13,6.92-2.09,13.21-5.25,18.88-9.49,5.67-4.23,10.38-9.36,14.14-15.39,3.76-6.02,6.41-12.98,7.96-20.85h48.68c-1.79,12.77-5.7,24.73-11.72,35.88-6.03,11.16-13.9,20.94-23.62,29.35-9.73,8.41-21.09,15.01-34.09,19.78-13.01,4.77-27.44,7.16-43.31,7.16Z"/>
        <path class="cls-3" d="M635.79,2377.62c-19.57,0-36.51-4.3-50.83-12.89-14.32-8.59-25.39-20.64-33.2-36.15-7.82-15.51-11.72-33.53-11.72-54.05s3.91-38.75,11.72-54.32c7.81-15.57,18.88-27.65,33.2-36.24,14.32-8.59,31.26-12.89,50.83-12.89s36.51,4.29,50.83,12.89c14.32,8.59,25.41,20.67,33.29,36.24,7.88,15.57,11.81,33.68,11.81,54.32s-3.94,38.54-11.81,54.05c-7.87,15.51-18.97,27.56-33.29,36.15-14.32,8.59-31.26,12.89-50.83,12.89ZM635.79,2339.68c10.86,0,19.8-2.89,26.85-8.68,7.04-5.79,12.32-13.63,15.84-23.54,3.52-9.9,5.28-20.88,5.28-32.93s-1.76-23.38-5.28-33.29c-3.52-9.9-8.8-17.75-15.84-23.54-7.04-5.79-15.99-8.68-26.85-8.68s-19.51,2.89-26.67,8.68c-7.16,5.79-12.5,13.63-16.02,23.54-3.52,9.9-5.28,21-5.28,33.29s1.76,23.03,5.28,32.93c3.52,9.9,8.86,17.75,16.02,23.54,7.16,5.79,16.05,8.68,26.67,8.68Z"/>
        <path class="cls-3" d="M750.34,2373.68v-200.09h44.92v34.18h2.51c4.18-11.45,11.1-20.43,20.76-26.94,9.66-6.5,21.12-9.75,34.36-9.75s25.06,3.28,34.36,9.84c9.31,6.56,15.81,15.51,19.51,26.85h2.15c4.53-11.1,12.05-19.98,22.55-26.67,10.5-6.68,23.03-10.02,37.58-10.02,18.37,0,33.38,5.82,45.01,17.45,11.63,11.63,17.45,28.61,17.45,50.92v134.23h-47.25v-127.07c0-12.29-3.31-21.33-9.93-27.12-6.62-5.79-14.71-8.68-24.25-8.68-11.34,0-20.17,3.55-26.49,10.65-6.33,7.1-9.49,16.2-9.49,27.29v124.92h-46.53v-128.86c0-10.38-3.04-18.64-9.13-24.79-6.09-6.14-14.14-9.22-24.16-9.22-6.8,0-13.01,1.73-18.61,5.19-5.61,3.46-10.05,8.29-13.33,14.5-3.28,6.2-4.92,13.36-4.92,21.48v121.7h-47.07Z"/>
        <path class="cls-3" d="M1058.9,2448.49v-274.9h46.18v33.11h2.86c2.39-4.77,5.79-9.93,10.2-15.48,4.41-5.55,10.41-10.29,17.99-14.23,7.58-3.94,17.27-5.91,29.08-5.91,15.39,0,29.29,3.94,41.7,11.81,12.41,7.87,22.28,19.45,29.62,34.72,7.34,15.27,11.01,34.07,11.01,56.38s-3.58,40.63-10.74,56.02c-7.16,15.39-16.97,27.12-29.44,35.17-12.47,8.05-26.58,12.08-42.33,12.08-11.34,0-20.79-1.94-28.37-5.82-7.58-3.88-13.66-8.53-18.26-13.96-4.59-5.43-8.08-10.59-10.47-15.48h-1.97v106.49h-47.07ZM1152.15,2338.6c10.38,0,19.06-2.8,26.04-8.41,6.98-5.61,12.26-13.3,15.84-23.09,3.58-9.78,5.37-20.88,5.37-33.29s-1.79-23.45-5.37-33.11c-3.58-9.66-8.83-17.24-15.75-22.73-6.92-5.49-15.63-8.23-26.13-8.23s-18.7,2.63-25.68,7.87c-6.98,5.25-12.29,12.68-15.93,22.28-3.64,9.61-5.46,20.91-5.46,33.92s1.82,24.19,5.46,33.92c3.64,9.73,8.98,17.3,16.02,22.73,7.04,5.43,15.57,8.14,25.59,8.14Z"/>
        <path class="cls-3" d="M1353.5,2377.62c-19.57,0-36.51-4.3-50.83-12.89s-25.39-20.64-33.2-36.15c-7.82-15.51-11.72-33.53-11.72-54.05s3.91-38.75,11.72-54.32c7.81-15.57,18.88-27.65,33.2-36.24,14.32-8.59,31.26-12.89,50.83-12.89s36.51,4.29,50.83,12.89c14.32,8.59,25.41,20.67,33.29,36.24,7.87,15.57,11.81,33.68,11.81,54.32s-3.94,38.54-11.81,54.05c-7.87,15.51-18.97,27.56-33.29,36.15s-31.26,12.89-50.83,12.89ZM1353.5,2339.68c10.86,0,19.8-2.89,26.85-8.68,7.04-5.79,12.32-13.63,15.84-23.54,3.52-9.9,5.28-20.88,5.28-32.93s-1.76-23.38-5.28-33.29c-3.52-9.9-8.8-17.75-15.84-23.54-7.04-5.79-15.99-8.68-26.85-8.68s-19.51,2.89-26.67,8.68c-7.16,5.79-12.5,13.63-16.02,23.54-3.52,9.9-5.28,21-5.28,33.29s1.76,23.03,5.28,32.93c3.52,9.9,8.86,17.75,16.02,23.54,7.16,5.79,16.05,8.68,26.67,8.68Z"/>
        <path class="cls-3" d="M1515.12,2256.63v117.05h-47.07v-200.09h46.18v34.18h2.33c4.53-11.21,11.66-20.13,21.39-26.76,9.72-6.62,22.1-9.93,37.14-9.93,13.84,0,25.89,2.93,36.15,8.77,10.26,5.85,18.22,14.41,23.89,25.68,5.67,11.28,8.5,24.91,8.5,40.9v127.25h-47.07v-119.91c0-13.36-3.46-23.83-10.38-31.41-6.92-7.58-16.47-11.37-28.64-11.37-8.23,0-15.54,1.79-21.92,5.37-6.38,3.58-11.4,8.74-15.03,15.48-3.64,6.74-5.46,15.01-5.46,24.79Z"/>
        <path class="cls-3" d="M1759.61,2377.62c-20.05,0-37.35-4.21-51.9-12.62-14.56-8.41-25.74-20.31-33.56-35.71-7.82-15.39-11.72-33.53-11.72-54.41s3.88-38.75,11.63-54.32c7.75-15.57,18.67-27.71,32.75-36.42,14.08-8.71,30.66-13.06,49.76-13.06,12.29,0,23.95,1.97,34.99,5.91,11.04,3.94,20.82,10.02,29.35,18.26,8.53,8.23,15.24,18.7,20.13,31.41,4.89,12.71,7.34,27.83,7.34,45.37v14.68h-163.94v-31.68h140.5l-22.01,9.31c0-11.33-1.73-21.21-5.19-29.62-3.46-8.41-8.59-15-15.39-19.78-6.8-4.77-15.27-7.16-25.41-7.16s-18.79,2.39-25.95,7.16c-7.16,4.77-12.59,11.19-16.29,19.24-3.7,8.05-5.55,17.03-5.55,26.94v22.01c0,12.17,2.12,22.58,6.35,31.23,4.23,8.65,10.2,15.24,17.9,19.78,7.7,4.54,16.67,6.8,26.94,6.8,6.68,0,12.8-.95,18.34-2.86,5.55-1.91,10.32-4.8,14.32-8.68,4-3.88,7.07-8.68,9.22-14.41l44.03,5.19c-2.86,11.57-8.14,21.69-15.84,30.34-7.7,8.65-17.54,15.33-29.53,20.05-11.99,4.71-25.74,7.07-41.25,7.07Z"/>
        <path class="cls-3" d="M1913.54,2256.63v117.05h-47.07v-200.09h46.18v34.18h2.33c4.53-11.21,11.66-20.13,21.39-26.76,9.72-6.62,22.1-9.93,37.14-9.93,13.84,0,25.89,2.93,36.15,8.77,10.26,5.85,18.22,14.41,23.89,25.68,5.67,11.28,8.5,24.91,8.5,40.9v127.25h-47.07v-119.91c0-13.36-3.46-23.83-10.38-31.41-6.92-7.58-16.47-11.37-28.64-11.37-8.23,0-15.54,1.79-21.92,5.37-6.38,3.58-11.4,8.74-15.03,15.48-3.64,6.74-5.46,15.01-5.46,24.79Z"/>
        <path class="cls-3" d="M2169.12,2173.59v36.51h-114.72v-36.51h114.72ZM2082.5,2125.98h47.07v187.57c0,7.87,1.73,13.69,5.19,17.45,3.46,3.76,8.95,5.64,16.47,5.64,2.03,0,4.3-.18,6.8-.54,2.51-.36,4.77-.77,6.8-1.25l8.05,36.87c-5.01,1.55-10.08,2.71-15.21,3.49-5.13.77-10.26,1.16-15.39,1.16-18.61,0-33.23-4.92-43.85-14.77-10.62-9.84-15.93-23.29-15.93-40.36v-195.26Z"/>
        <path class="cls-3" d="M2259.7,2373.68v-266.67h48.32v226.22h117.59v40.45h-165.91Z"/>
        <path class="cls-3" d="M2467.67,2145.49c-7.52,0-13.96-2.51-19.33-7.52-5.37-5.01-8.05-11.03-8.05-18.08s2.68-13.24,8.05-18.26c5.37-5.01,11.81-7.52,19.33-7.52s13.78,2.51,19.15,7.52c5.37,5.01,8.05,11.1,8.05,18.26s-2.68,13.06-8.05,18.08c-5.37,5.01-11.75,7.52-19.15,7.52ZM2444.05,2373.68v-200.09h47.07v200.09h-47.07Z"/>
        <path class="cls-3" d="M2624.64,2377.26c-11.34,0-20.79-1.94-28.37-5.82-7.58-3.88-13.66-8.53-18.26-13.96-4.59-5.43-8.08-10.59-10.47-15.48h-2.86v31.68h-46.18v-266.67h47.07v99.69h1.97c2.39-4.77,5.79-9.93,10.2-15.48,4.41-5.55,10.41-10.29,17.99-14.23,7.58-3.94,17.27-5.91,29.08-5.91,15.39,0,29.29,3.94,41.7,11.81,12.41,7.87,22.28,19.45,29.62,34.72,7.34,15.27,11.01,34.07,11.01,56.38s-3.58,40.63-10.74,56.02c-7.16,15.39-16.97,27.12-29.44,35.17-12.47,8.05-26.58,12.08-42.33,12.08ZM2611.75,2338.6c10.38,0,19.06-2.8,26.04-8.41,6.98-5.61,12.26-13.3,15.84-23.09,3.58-9.78,5.37-20.88,5.37-33.29s-1.79-23.45-5.37-33.11c-3.58-9.66-8.83-17.24-15.75-22.73-6.92-5.49-15.63-8.23-26.13-8.23s-18.7,2.63-25.68,7.87c-6.98,5.25-12.29,12.68-15.93,22.28-3.64,9.61-5.46,20.91-5.46,33.92s1.82,24.19,5.46,33.92c3.64,9.73,8.98,17.3,16.02,22.73,7.04,5.43,15.57,8.14,25.59,8.14Z"/>
        <path class="cls-3" d="M2725.95,2373.68v-200.09h45.64v33.65h2.15c3.58-11.69,9.84-20.67,18.79-26.94s19.15-9.4,30.6-9.4c2.51,0,5.4.12,8.68.36,3.28.24,6,.54,8.14.89v43.31c-2.03-.72-5.19-1.31-9.49-1.79-4.3-.48-8.41-.72-12.35-.72-8.71,0-16.47,1.85-23.27,5.55-6.8,3.7-12.14,8.77-16.02,15.21-3.88,6.44-5.82,13.96-5.82,22.55v117.41h-47.07Z"/>
        <path class="cls-3" d="M2904.21,2377.8c-12.77,0-24.22-2.3-34.36-6.89-10.14-4.59-18.14-11.37-23.98-20.31-5.85-8.95-8.77-19.98-8.77-33.11,0-11.21,2.09-20.52,6.26-27.92,4.18-7.4,9.87-13.3,17.09-17.72,7.22-4.41,15.36-7.79,24.43-10.11,9.07-2.33,18.43-3.97,28.1-4.92,11.81-1.31,21.36-2.44,28.64-3.4,7.28-.95,12.56-2.5,15.84-4.65,3.28-2.15,4.92-5.49,4.92-10.02v-.89c0-9.66-2.86-17.18-8.59-22.55-5.73-5.37-14.08-8.05-25.06-8.05-11.57,0-20.73,2.51-27.47,7.52-6.74,5.01-11.31,10.92-13.69,17.72l-43.85-6.26c3.46-12.17,9.19-22.34,17.18-30.51,7.99-8.17,17.75-14.32,29.26-18.43,11.51-4.12,24.25-6.17,38.21-6.17,9.54,0,19.09,1.1,28.64,3.31,9.54,2.21,18.31,5.94,26.31,11.19,7.99,5.25,14.38,12.29,19.15,21.12,4.77,8.83,7.16,19.87,7.16,33.11v133.87h-45.28v-27.56h-1.43c-2.86,5.49-6.89,10.65-12.08,15.48-5.19,4.83-11.63,8.74-19.33,11.72-7.7,2.98-16.8,4.47-27.29,4.47ZM2916.2,2343.08c9.54,0,17.78-1.88,24.7-5.64,6.92-3.76,12.29-8.77,16.11-15.03,3.82-6.26,5.73-13.09,5.73-20.49v-23.45c-1.55,1.19-4.06,2.3-7.52,3.31-3.46,1.02-7.4,1.94-11.81,2.77-4.42.84-8.74,1.55-12.98,2.15-4.24.6-7.91,1.07-11.01,1.43-7.04.96-13.33,2.54-18.88,4.74-5.55,2.21-9.93,5.22-13.15,9.04-3.22,3.82-4.83,8.77-4.83,14.85,0,8.71,3.16,15.27,9.49,19.69,6.32,4.42,14.38,6.62,24.16,6.62Z"/>
        <path class="cls-3" d="M3037.2,2373.68v-200.09h45.64v33.65h2.15c3.58-11.69,9.84-20.67,18.79-26.94s19.15-9.4,30.6-9.4c2.51,0,5.4.12,8.68.36,3.28.24,6,.54,8.14.89v43.31c-2.03-.72-5.19-1.31-9.49-1.79-4.3-.48-8.41-.72-12.35-.72-8.71,0-16.47,1.85-23.27,5.55-6.8,3.7-12.14,8.77-16.02,15.21-3.88,6.44-5.82,13.96-5.82,22.55v117.41h-47.07Z"/>
        <path class="cls-3" d="M3197.03,2448.49c-6.44.12-12.38-.33-17.81-1.34-5.43-1.02-9.82-2.18-13.15-3.49l11.1-36.69,2.33.72c9.54,2.51,17.69,2.68,24.43.54,6.74-2.15,12.14-8.65,16.2-19.51l3.94-10.74-72.31-204.39h49.93l46,151.23h2.15l46.18-151.23h50.29l-80.18,224.25c-3.7,10.62-8.59,19.72-14.68,27.29-6.09,7.58-13.6,13.36-22.55,17.36-8.95,4-19.57,6-31.86,6Z"/>
      </g>
    </g>
  </g>
</svg>